<svg xmlns="http://www.w3.org/2000/svg" viewBox="0 0 280 50">
  <defs>
    <linearGradient id="g" x1="0" y1="0" x2="1" y2="1">
      <stop offset="0%" stop-color="#f39c12"/>
      <stop offset="100%" stop-color="#e67e22"/>
    </linearGradient>
  </defs>
  <!-- Saw blade icon -->
  <circle cx="25" cy="25" r="20" fill="url(#g)"/>
  <circle cx="25" cy="25" r="7" fill="white"/>
  <g fill="white" opacity="0.9">
    <rect x="23" y="2" width="4" height="8" rx="1"/>
    <rect x="23" y="40" width="4" height="8" rx="1"/>
    <rect x="2" y="23" width="8" height="4" rx="1"/>
    <rect x="40" y="23" width="8" height="4" rx="1"/>
    <rect x="8" y="8" width="4" height="7" rx="1" transform="rotate(45 10 11.5)"/>
    <rect x="38" y="35" width="4" height="7" rx="1" transform="rotate(45 40 38.5)"/>
    <rect x="38" y="8" width="4" height="7" rx="1" transform="rotate(-45 40 11.5)"/>
    <rect x="8" y="35" width="4" height="7" rx="1" transform="rotate(-45 10 38.5)"/>
  </g>
  <!-- Text -->
  <text x="55" y="22" font-family="system-ui, -apple-system, sans-serif" font-size="20" font-weight="700" fill="#2d3436">Testere</text>
  <text x="55" y="42" font-family="system-ui, -apple-system, sans-serif" font-size="20" font-weight="300" fill="#f39c12">Plus</text>
  <text x="136" y="42" font-family="system-ui, -apple-system, sans-serif" font-size="8" font-weight="600" fill="#636e72" letter-spacing="0.5">PROFESYONEL KESİCİ TAKIMLAR</text>
</svg>
